<?xml version="1.0" encoding="UTF-8" standalone="no"?>
<!DOCTYPE svg PUBLIC "-//W3C//DTD SVG 1.1//EN" "http://www.w3.org/Graphics/SVG/1.1/DTD/svg11.dtd">
<svg width="100%" height="100%" viewBox="0 0 730 82" version="1.1" xmlns="http://www.w3.org/2000/svg" xmlns:xlink="http://www.w3.org/1999/xlink" xml:space="preserve" xmlns:serif="http://www.serif.com/" style="fill-rule:evenodd;clip-rule:evenodd;stroke-linejoin:round;stroke-miterlimit:2;">
    <g transform="matrix(1,0,0,1,-41.4842,-34.2)">
        <g>
            <path d="M71.9,115.8C64.1,115.8 57.6,114.1 52.3,110.6C47.4,107.4 43.8,103.1 41.6,97.8C41.3,97 41.6,96.1 42.3,95.7L52.6,89.6C53.5,89.1 54.5,89.5 55,90.4C58.2,97.2 64,100.6 72.3,100.6C76.6,100.6 79.8,99.8 81.8,98.3C83.8,96.7 84.8,94.7 84.8,92.4C84.8,89.6 83.6,87.5 81.1,86C78.6,84.5 74.2,82.8 67.9,81C64.4,80 61.4,78.9 59,77.9C56.6,76.9 54.2,75.5 51.7,73.7C49.3,71.9 47.4,69.7 46.2,67C44.9,64.3 44.3,61.2 44.3,57.6C44.3,50.5 46.8,44.8 51.9,40.6C57,36.4 63,34.3 70.1,34.3C76.4,34.3 82,35.8 86.8,39C91.2,41.8 94.7,45.7 97.3,50.5C97.7,51.3 97.4,52.3 96.6,52.7L87.3,58.1C85.7,59 84.7,58.7 84.2,57.9C81,52.2 76.3,49.4 70,49.4C66.8,49.4 64.3,50.1 62.4,51.6C60.6,53.1 59.7,54.9 59.7,57.3C59.7,59.8 60.7,61.8 62.8,63.3C64.9,64.8 68.8,66.5 74.6,68.3C77,69.1 78.8,69.6 80,70C81.2,70.4 82.9,71.1 85,71.9C87.1,72.8 88.8,73.6 89.9,74.3C91,75 92.4,76.1 93.9,77.3C95.4,78.6 96.5,79.9 97.3,81.2C98.1,82.5 98.8,84.2 99.3,86.1C99.8,88 100.1,90.1 100.1,92.3C100.1,99.5 97.5,105.3 92.2,109.5C87.2,113.7 80.4,115.8 71.9,115.8Z" style="fill-rule:nonzero;"/>
            <path d="M184.1,37.5L184.1,49C184.1,49.9 183.3,50.7 182.4,50.7L163,50.7L163,112.6C163,113.5 162.2,114.3 161.3,114.3L149.2,114.3C148.3,114.3 147.5,113.5 147.5,112.6L147.5,50.7L128.1,50.7C127.2,50.7 126.4,49.9 126.4,49L126.4,37.5C126.4,36.6 127.2,35.8 128.1,35.8L182.4,35.8C183.4,35.9 184.1,36.6 184.1,37.5Z" style="fill-rule:nonzero;"/>
            <path d="M278.9,104C271,111.9 261.4,115.8 250,115.8C238.6,115.8 229,111.9 221.2,104C213.3,96.1 209.4,86.5 209.4,75C209.4,63.5 213.3,53.9 221.2,46C229.1,38.1 238.7,34.2 250,34.2C261.3,34.2 271,38.1 278.9,46C286.8,53.9 290.8,63.5 290.8,75C290.8,86.5 286.8,96.1 278.9,104ZM232,93.5C236.9,98.3 242.9,100.7 250,100.7C257.2,100.7 263.2,98.3 268,93.5C272.9,88.7 275.3,82.5 275.3,75.1C275.3,67.7 272.9,61.5 268,56.6C263.1,51.8 257.1,49.3 250,49.3C242.9,49.3 236.8,51.7 232,56.6C227.1,61.4 224.7,67.6 224.7,75.1C224.7,82.6 227.1,88.7 232,93.5Z" style="fill-rule:nonzero;"/>
            <path d="M368.8,113.4L353.4,87L341.7,87L341.7,112.6C341.7,113.5 340.9,114.3 340,114.3L327.9,114.3C327,114.3 326.2,113.5 326.2,112.6L326.2,35.9L357.6,35.9C365.5,35.9 372,38.9 377.3,44.9C380.4,48.3 382.4,52.6 383.2,57.1C384.4,63.8 383.1,69.9 379.5,75.4C376.7,79.5 373.1,82.7 368.5,84.7L384.4,111.8C385,112.9 384.3,114.3 383,114.3L370.2,114.3C369.6,114.3 369.1,113.9 368.8,113.4ZM341.7,50.3L341.7,73.5L357.6,73.5C360.5,73.5 363,72.4 365.1,70.1C367.2,67.8 368.2,65.1 368.2,61.9C368.2,58.7 367.2,56 365.1,53.7C363,51.5 360.5,50.3 357.6,50.3L341.7,50.3Z" style="fill-rule:nonzero;"/>
            <path d="M439.4,58.7L428.4,37.5C428.1,37 427.5,36.6 426.9,36.6L413.3,36.6C412,36.6 411.2,38 411.8,39.1L431.1,73.6L439.4,58.7Z" style="fill-rule:nonzero;"/>
            <path d="M461.3,38C461.7,37.2 462.6,36.7 463.5,36.7L476.6,36.7C477.9,36.7 478.7,38.1 478.1,39.2L454.1,82C453.1,83.7 452.6,85.6 452.6,87.5L452.6,113.5C452.6,114.4 451.8,115.2 450.9,115.2L438.9,115.2C438,115.2 437.2,114.4 437.2,113.5L437.2,84.5C437.2,82.6 437.7,80.7 438.6,79L461.3,38Z" style="fill-rule:nonzero;"/>
            <path d="M571.8,104C563.9,111.9 554.3,115.8 542.9,115.8C531.5,115.8 521.9,111.9 514.1,104C506.3,96.1 502.3,86.5 502.3,75C502.3,63.5 506.2,53.9 514.1,46C522,38.1 531.6,34.2 542.9,34.2C554.2,34.2 563.9,38.1 571.8,46C579.7,53.9 583.7,63.5 583.7,75C583.7,86.5 579.8,96.1 571.8,104ZM524.9,93.5C529.7,98.3 535.8,100.7 542.9,100.7C550,100.7 556.1,98.3 560.9,93.5C565.7,88.7 568.2,82.5 568.2,75.1C568.2,67.7 565.8,61.5 560.9,56.6C556,51.8 550,49.3 542.9,49.3C535.8,49.3 529.7,51.7 524.9,56.6C520,61.4 517.6,67.6 517.6,75.1C517.6,82.6 520.1,88.7 524.9,93.5Z" style="fill-rule:nonzero;"/>
            <path d="M647.9,115.8C639.2,115.8 632,113.3 626.4,108.4C620.8,103.5 618,96.9 618,88.6L618,37.5C618,36.6 618.8,35.8 619.7,35.8L631.7,35.8C632.6,35.8 633.4,36.6 633.4,37.5L633.4,87.3C633.4,91.4 634.6,94.6 636.9,97C639.2,99.4 642.9,100.6 647.9,100.6C652.9,100.6 656.6,99.4 658.9,97C661.2,94.6 662.4,91.4 662.4,87.3L662.4,37.5C662.4,36.6 663.2,35.8 664.1,35.8L676.2,35.8C677.1,35.8 677.9,36.6 677.9,37.5L677.9,88.6C677.9,96.9 675.1,103.5 669.5,108.4C663.9,113.4 656.7,115.8 647.9,115.8Z" style="fill-rule:nonzero;"/>
            <path d="M743.2,115.8C735.4,115.8 728.9,114.1 723.6,110.6C718.7,107.4 715.1,103.1 712.9,97.8C712.6,97 712.9,96.1 713.6,95.7L723.9,89.6C724.8,89.1 725.8,89.5 726.3,90.4C729.5,97.2 735.3,100.6 743.6,100.6C747.9,100.6 751.1,99.8 753.1,98.3C755.1,96.8 756.1,94.7 756.1,92.4C756.1,89.6 754.9,87.5 752.4,86C749.9,84.5 745.5,82.8 739.2,81C735.7,80 732.7,78.9 730.3,77.9C727.9,76.9 725.5,75.5 723,73.7C720.6,71.9 718.7,69.7 717.5,67C716.2,64.3 715.6,61.2 715.6,57.6C715.6,50.5 718.1,44.8 723.2,40.6C728.3,36.4 734.3,34.3 741.4,34.3C747.7,34.3 753.3,35.8 758.1,39C762.5,41.8 766,45.7 768.6,50.5C769,51.3 768.7,52.3 767.9,52.7L758.6,58.1C757,59 756,58.7 755.5,57.9C752.3,52.2 747.6,49.4 741.3,49.4C738.1,49.4 735.6,50.1 733.7,51.6C731.9,53.1 731,54.9 731,57.3C731,59.8 732,61.8 734.1,63.3C736.2,64.8 740.1,66.5 745.9,68.3C748.3,69.1 750.1,69.6 751.3,70C752.5,70.4 754.2,71.1 756.3,71.9C758.4,72.8 760.1,73.6 761.2,74.3C762.3,75 763.7,76.1 765.2,77.3C766.7,78.6 767.8,79.9 768.6,81.2C769.4,82.5 770.1,84.2 770.6,86.1C771.1,88 771.4,90.1 771.4,92.3C771.4,99.5 768.8,105.3 763.5,109.5C758.5,113.7 751.6,115.8 743.2,115.8Z" style="fill-rule:nonzero;"/>
        </g>
    </g>
</svg>
